<svg xmlns="http://www.w3.org/2000/svg" width="40" height="40" viewBox="0 0 40 40"><path d="M379.327,134.455a20.145,20.145,0,0,0-19.766,17.19A20.511,20.511,0,0,0,373,174.346a1.014,1.014,0,0,0,1.363-.993v-3.48c-5.563,1.256-6.741-2.739-6.741-2.739a5.466,5.466,0,0,0-2.223-3c-1.805-1.256.147-1.256.147-1.256a4.211,4.211,0,0,1,3.058,2.111,4.293,4.293,0,0,0,2.563,2.091,4.187,4.187,0,0,0,3.257-.383,4.392,4.392,0,0,1,1.228-2.739c-4.445-.515-9.111-2.274-9.111-10.114a8.02,8.02,0,0,1,2.051-5.49,7.611,7.611,0,0,1,.2-5.415s1.682-.553,5.5,2.1a18.509,18.509,0,0,1,10.02,0c3.819-2.651,5.489-2.1,5.489-2.1a7.572,7.572,0,0,1,.209,5.415,8.02,8.02,0,0,1,2.051,5.49c0,7.865-4.679,9.586-9.136,10.051a4.9,4.9,0,0,1,1.363,3.769v5.616c0,.666.356,1.181,1.375.993a20.526,20.526,0,0,0,13.377-22.7,20.159,20.159,0,0,0-19.714-17.194Z" transform="translate(-359.302 -134.38)" fill="#f9f9f9" fill-rule="evenodd" opacity="0.5"/></svg>