<svg xmlns="http://www.w3.org/2000/svg" width="40" height="40" viewBox="0 0 40 40"><g opacity="0.5"><path d="M28.084,0H11.916A11.93,11.93,0,0,0,0,11.916V28.084A11.93,11.93,0,0,0,11.916,40H28.084A11.93,11.93,0,0,0,40,28.084V11.916A11.93,11.93,0,0,0,28.084,0Zm7.892,28.084a7.892,7.892,0,0,1-7.892,7.892H11.916a7.892,7.892,0,0,1-7.892-7.892V11.916a7.892,7.892,0,0,1,7.892-7.892H28.084a7.892,7.892,0,0,1,7.892,7.892V28.084Z" fill="#f9f9f9"/><path d="M143.691,133a10.69,10.69,0,1,0,10.691,10.69A10.7,10.7,0,0,0,143.691,133Zm0,17.223a6.532,6.532,0,1,1,6.532-6.532A6.532,6.532,0,0,1,143.691,150.223Z" transform="translate(-123.691 -123.691)" fill="#f9f9f9"/><circle cx="2.39" cy="2.39" r="2.39" transform="translate(28.028 7.29)" fill="#f9f9f9"/></g></svg>