<svg xmlns="http://www.w3.org/2000/svg" width="40" height="40.259" viewBox="0 0 40 40.259"><path d="M36.382,0H3.618A3.63,3.63,0,0,0,0,3.642V36.617a3.63,3.63,0,0,0,3.618,3.642H36.382A3.63,3.63,0,0,0,40,36.617V3.642A3.63,3.63,0,0,0,36.382,0Zm-24,34.763a1.056,1.056,0,0,1-1.053,1.06H6.842a1.056,1.056,0,0,1-1.053-1.06V15.851a1.056,1.056,0,0,1,1.053-1.06h4.482a1.056,1.056,0,0,1,1.053,1.06ZM9.084,13.009a4.286,4.286,0,1,1,4.258-4.286A4.272,4.272,0,0,1,9.084,13.009ZM35.8,34.848a.971.971,0,0,1-.968.974h-4.81a.971.971,0,0,1-.968-.974V25.977c0-1.323.386-5.8-3.436-5.8-2.964,0-3.566,3.063-3.686,4.438V34.848a.971.971,0,0,1-.968.974H16.314a.971.971,0,0,1-.968-.974V15.766a.971.971,0,0,1,.968-.974h4.652a.971.971,0,0,1,.968.974v1.65c1.1-1.66,2.733-2.942,6.211-2.942,7.7,0,7.658,7.242,7.658,11.221v9.153Z" fill="#f9f9f9" opacity="0.5"/></svg>