<svg xmlns="http://www.w3.org/2000/svg" width="47.667" height="36.312" viewBox="0 0 47.667 36.312"><g transform="translate(0 0)"><g transform="translate(3.108 0)"><path d="M75.422,122.808l-3.043,30.556H35.831L33.379,123.4,54.1,135Z" transform="translate(-33.379 -117.052)" fill="#f2f2f2"/><path d="M78.684,60.983,58.4,80.038,38.114,60.983h40.57Z" transform="translate(-37.673 -60.983)" fill="#f2f2f2"/></g><path d="M5.559,116.019v27.513H2.247A2.248,2.248,0,0,1,0,141.285V111.967l3.631.1Z" transform="translate(0 -107.22)" fill="#f14336"/><path d="M457.847,109.247v29.318a2.248,2.248,0,0,1-2.248,2.247h-3.311V113.3l1.833-4.331Z" transform="translate(-410.18 -104.501)" fill="#d32e2a"/><path d="M47.667,63.23v2.5l-5.559,4.052L23.833,83.1,5.559,69.782,0,65.73v-2.5a2.248,2.248,0,0,1,2.247-2.247h1.3L23.833,75.768,44.118,60.983h1.3A2.248,2.248,0,0,1,47.667,63.23Z" transform="translate(0 -60.983)" fill="#f14336"/><path d="M5.559,116.019,0,115.157v-3.19Z" transform="translate(0 -107.22)" fill="#d32e2a"/></g></svg>