<svg xmlns="http://www.w3.org/2000/svg" width="160" height="33.332" viewBox="0 0 160 33.332"><g transform="translate(-0.01 0.13)"><path d="M379,399.062V373h3.457v26.05Z" transform="translate(-356.3 -370.515)" fill="#f9f9f9"/><path d="M398.21,409.472a2.712,2.712,0,0,1-1.358-.326,2.217,2.217,0,0,1-.872-.906,4.374,4.374,0,0,1-.423-1.2,6.927,6.927,0,0,1-.127-1.367V390.62h3.44v14.045a3.149,3.149,0,0,0,.313,1.587,1.27,1.27,0,0,0,1.164.52,4,4,0,0,0,2.4-1.151v-15h3.44v18.619h-3.44V407.4A6.626,6.626,0,0,1,398.21,409.472Z" transform="translate(-365.778 -380.679)" fill="#f9f9f9"/><path d="M429.65,379.184V375.57h3.457v3.614Zm0,21.353V381.917h3.44v18.619Z" transform="translate(-385.517 -371.997)" fill="#f9f9f9"/><path d="M444.81,409.206V406.9l5.7-13.719h-5.124V390.6H454.2v1.862L448.5,406.6h5.581v2.59Z" transform="translate(-394.262 -380.667)" fill="#f9f9f9"/><path d="M476.441,402.079a3.8,3.8,0,0,1-3.059-1.113,5.192,5.192,0,0,1-.965-3.334V385.5H470.47v-2.285h1.947V377.79h3.44v5.421h2.987V385.5h-2.987v11.895a2.623,2.623,0,0,0,.355,1.57,1.613,1.613,0,0,0,1.341.457,9.13,9.13,0,0,0,1.269-.08v2.539a20.2,20.2,0,0,1-2.382.2Z" transform="translate(-409.064 -373.278)" fill="#f9f9f9"/><path d="M500.982,409.114a6.953,6.953,0,0,1-2.721-.461,3.61,3.61,0,0,1-1.693-1.443,6.666,6.666,0,0,1-.846-2.294,17.807,17.807,0,0,1-.245-3.229v-4.261a16.948,16.948,0,0,1,.258-3.258,6.5,6.5,0,0,1,.872-2.294,3.563,3.563,0,0,1,1.693-1.422,6.808,6.808,0,0,1,2.662-.457,7.616,7.616,0,0,1,1.76.186,4.944,4.944,0,0,1,1.329.52,3.136,3.136,0,0,1,.948.884,5.7,5.7,0,0,1,.639,1.181,7.617,7.617,0,0,1,.385,1.506,16.841,16.841,0,0,1,.186,1.769q.051.88.051,2.057v1.511h-7.321v3.851c0,.254.025.58.063.982a3.222,3.222,0,0,0,.182.9,3.6,3.6,0,0,0,.343.63,1.176,1.176,0,0,0,.575.461,2.432,2.432,0,0,0,.846.135,1.561,1.561,0,0,0,1.519-.762,5.14,5.14,0,0,0,.4-2.3v-1.134h3.36v.741Q506.233,409.114,500.982,409.114Zm-2.061-11.375h3.944v-1.693a10.82,10.82,0,0,0-.042-1.244,5.693,5.693,0,0,0-.157-.973,2.057,2.057,0,0,0-.322-.736,1.362,1.362,0,0,0-.559-.423,2.086,2.086,0,0,0-.846-.157,1.589,1.589,0,0,0-1.621.88,9.377,9.377,0,0,0-.389,3.33Z" transform="translate(-423.487 -380.317)" fill="#f9f9f9"/><path d="M528.82,379.164V375.55h3.461v3.614Zm0,21.352V381.9h3.461v18.619Z" transform="translate(-442.723 -371.986)" fill="#f9f9f9"/><path d="M542.28,409.182l4.16-9.771-4.088-8.831h3.3l2.721,5.89,2.416-5.89h3.385l-4.232,9.254,4.325,9.348h-3.284l-2.924-6.318-2.514,6.318Z" transform="translate(-450.487 -380.656)" fill="#f15025"/><path d="M579.928,409.094a6.876,6.876,0,0,1-2.721-.461,3.588,3.588,0,0,1-1.693-1.443,6.77,6.77,0,0,1-.846-2.294,18.246,18.246,0,0,1-.241-3.229v-4.261a17.653,17.653,0,0,1,.258-3.258,6.661,6.661,0,0,1,.872-2.293,3.606,3.606,0,0,1,1.693-1.422,6.847,6.847,0,0,1,2.666-.457,7.615,7.615,0,0,1,1.76.186,4.917,4.917,0,0,1,1.324.52,3.1,3.1,0,0,1,.952.884,5.7,5.7,0,0,1,.639,1.181,7.62,7.62,0,0,1,.385,1.506,16.807,16.807,0,0,1,.186,1.769c.034.588.047,1.27.047,2.057v1.511h-7.321v3.851c0,.25.025.58.063.982a3.212,3.212,0,0,0,.178.9,3.805,3.805,0,0,0,.347.63,1.155,1.155,0,0,0,.576.461,2.415,2.415,0,0,0,.846.135,1.549,1.549,0,0,0,1.515-.762,5.134,5.134,0,0,0,.423-2.3v-1.134h3.36v.724Q585.18,409.094,579.928,409.094Zm-2.061-11.374h3.944v-1.693a11.865,11.865,0,0,0-.038-1.24,6.106,6.106,0,0,0-.157-.977,2.057,2.057,0,0,0-.322-.736,1.392,1.392,0,0,0-.559-.423,2.09,2.09,0,0,0-.846-.157,1.583,1.583,0,0,0-1.616.88,9.35,9.35,0,0,0-.394,3.33Z" transform="translate(-469.03 -380.306)" fill="#f9f9f9"/><path d="M607.76,379.144V375.53h3.457v3.614Zm0,21.353V381.877h3.44V400.5Z" transform="translate(-488.259 -371.974)" fill="#f9f9f9"/><path d="M624.82,408.816V390.2h3.445v2.653a6.661,6.661,0,0,1,1.972-2.247,3.931,3.931,0,0,1,2.141-.643,5.6,5.6,0,0,1,.567.03V393.8a5.3,5.3,0,0,0-1.883-.36,2.928,2.928,0,0,0-1.519.385,4.066,4.066,0,0,0-1.269,1.392V408.8Z" transform="translate(-498.1 -380.298)" fill="#f9f9f9"/><path d="M651.8,409.088a3.322,3.322,0,0,1-2.666-1.312,4.625,4.625,0,0,1-1.075-3.009,6.368,6.368,0,0,1,.423-2.4,7.829,7.829,0,0,1,.918-1.739,5.693,5.693,0,0,1,1.693-1.375,20.857,20.857,0,0,1,1.862-1.011q.66-.3,2.306-.977l.144-.063v-1.333a6.376,6.376,0,0,0-.372-2.569,1.5,1.5,0,0,0-1.5-.762c-1.3,0-1.951.88-1.946,2.641v.927l-3.411-.127a6.038,6.038,0,0,1,.03-.69,4.925,4.925,0,0,1,5.56-5.323,4.717,4.717,0,0,1,3.88,1.468,6.928,6.928,0,0,1,1.2,4.422v8.51a33.487,33.487,0,0,0,.317,4.46h-3.144a27.344,27.344,0,0,1-.453-2.767,4.782,4.782,0,0,1-1.341,2.137A3.445,3.445,0,0,1,651.8,409.088Zm1.363-2.987a2.069,2.069,0,0,0,1.3-.516,4.253,4.253,0,0,0,.948-1.024v-5.268a18.147,18.147,0,0,0-2.387,1.511,3.648,3.648,0,0,0-1.511,2.907,3.119,3.119,0,0,0,.423,1.76,1.384,1.384,0,0,0,1.227.63Z" transform="translate(-511.504 -380.304)" fill="#f9f9f9"/><path d="M681.654,409.292v-3.457l6.627-4.824-6.631-4.777V392.78l9.242,6.517v3.457Z" transform="translate(-530.882 -381.925)" fill="#f9f9f9"/><path d="M334.588,409.362l-9.208-6.5V399.4l9.208-6.55V396.3l-6.618,4.816,6.618,4.79Z" transform="translate(-325.37 -381.965)" fill="#f9f9f9"/><path d="M353.987,445.374c-.03.042.148.072.178.089C354.14,445.369,353.932,445.361,353.987,445.374Z" transform="translate(-341.867 -412.26)" fill="#fafafa"/><path d="M28.1,76.091l.063.034-.14-.165Z" transform="translate(-16.157 -43.892)" fill="#fafafa"/><path d="M353.727,441.44c-.309,0-.025.288-.165.393h-.072l.22.123C353.706,441.787,353.617,441.533,353.727,441.44Z" transform="translate(-341.585 -409.994)" fill="#fafafa"/><path d="M355.688,440.846c-.123,0-.076-.114-.059.085h.03a.367.367,0,0,1,.03-.085Z" transform="translate(-342.806 -409.632)" fill="#fafafa"/><path d="M355.73,441.055C355.73,441.139,355.84,441.029,355.73,441.055Z" transform="translate(-342.877 -409.769)" fill="#fafafa"/><path d="M355.81,440.126l.076.135c.072,0,.11-.093.152-.047C356.009,440.092,355.937,440.1,355.81,440.126Z" transform="translate(-342.923 -409.226)" fill="#fafafa"/><path d="M355.37,439.79l.03.063C355.429,439.853,355.442,439.841,355.37,439.79Z" transform="translate(-342.669 -409.042)" fill="#fafafa"/><path d="M355.392,440.076l-.059-.14c-.051,0-.148-.021,0,.063C355.265,439.962,355.346,440.013,355.392,440.076Z" transform="translate(-342.603 -409.125)" fill="#fafafa"/><path d="M355.141,440.365c-.076.038-.14.106-.212-.025C354.917,440.552,355.128,440.577,355.141,440.365Z" transform="translate(-342.415 -409.359)" fill="#fafafa"/><path d="M353.216,441.16l-.106.055.08.093C353.152,441.262,353.309,441.177,353.216,441.16Z" transform="translate(-341.366 -409.832)" fill="#fafafa"/><path d="M356.234,438.675a2.065,2.065,0,0,0-.254-.025l.047.1C356.082,438.718,356.141,438.654,356.234,438.675Z" transform="translate(-343.021 -408.385)" fill="#fafafa"/><path d="M355.867,438.454l-.076-.144C355.74,438.412,355.787,438.445,355.867,438.454Z" transform="translate(-342.9 -408.188)" fill="#fafafa"/><path d="M29.24,72.534l.173.25-.165-.284Z" transform="translate(-16.861 -41.896)" fill="#fafafa"/><path d="M31.419,70.618l.127.106-.186-.173Z" transform="translate(-18.084 -40.771)" fill="#fafafa"/><path d="M357,436.712c.106.08.22,0,.279.055,0-.085-.085-.178-.157-.267C357.157,436.563,357.123,436.631,357,436.712Z" transform="translate(-343.61 -407.144)" fill="#fafafa"/><path d="M357,436.14a.845.845,0,0,0,.11.135A.423.423,0,0,0,357,436.14Z" transform="translate(-343.61 -406.937)" fill="#fafafa"/><path d="M356,437.807a.3.3,0,0,0,.2-.047H356a.32.32,0,0,1,0,.047Z" transform="translate(-343.033 -407.871)" fill="#fafafa"/><path d="M356,437.627h0a.252.252,0,0,1,.034-.1Z" transform="translate(-343.033 -407.738)" fill="#fafafa"/><path d="M355.982,437.885Z" transform="translate(-343.015 -407.941)" fill="#fafafa"/><path d="M354.73,438.655c-.08-.093-.144-.262-.33-.165C354.506,438.571,354.612,438.511,354.73,438.655Z" transform="translate(-342.11 -408.275)" fill="#fafafa"/><path d="M355.332,437.89l-.072.11a.19.19,0,0,1,.161.055Z" transform="translate(-342.606 -407.946)" fill="#fafafa"/><path d="M29.96,70.76l.042.076.025-.042Z" transform="translate(-17.276 -40.892)" fill="#fafafa"/><path d="M356.3,436.253a.246.246,0,0,1-.047-.2.623.623,0,0,0-.11.2C356.2,436.274,356.284,436.329,356.3,436.253Z" transform="translate(-343.114 -406.885)" fill="#fafafa"/><path d="M356.212,437.115Z" transform="translate(-343.148 -407.497)" fill="#fafafa"/><path d="M356.764,434.53h0Z" transform="translate(-343.454 -406.008)" fill="#fafafa"/><path d="M356.033,436.512c-.047.042,0,.085.034.131a.363.363,0,0,1,0-.135C356.046,436.5,356.029,436.491,356.033,436.512Z" transform="translate(-343.041 -407.144)" fill="#fafafa"/><path d="M356.838,435.66a1.049,1.049,0,0,0-.118.064C356.762,435.715,356.864,435.681,356.838,435.66Z" transform="translate(-343.448 -406.66)" fill="#fafafa"/><path d="M356.34,437.07Z" transform="translate(-343.229 -407.473)" fill="#fafafa"/><path d="M356.225,436.937a.579.579,0,0,0-.085-.1.225.225,0,0,0,.034.1Z" transform="translate(-343.114 -407.34)" fill="#fafafa"/><path d="M354.29,433.2c.157.051.271.228.064.3.089.148.643.216.969.19a.267.267,0,0,1-.2-.186c-.1,0-.279.216-.4.072-.038-.182.093-.114.2-.174-.22,0-.237-.279-.546-.326l.068.169C354.4,433.241,354.341,433.169,354.29,433.2Z" transform="translate(-342.046 -405.172)" fill="#fafafa"/><path d="M356.55,434.776v.055c.042-.051.118-.072.267-.114a.279.279,0,0,0-.165-.157l-.089.237Z" transform="translate(-343.35 -406.025)" fill="#fafafa"/><path d="M355.839,435.418c-.165-.085-.207-.224-.423-.2-.025.148.118.144.173.25.021-.25.08.093.224-.051a.336.336,0,0,1,0,.14l.114-.1h-.021l-.063-.03c.055-.059.051,0,.063.03h.025l-.034-.262a.364.364,0,0,0-.059.229Z" transform="translate(-342.694 -406.389)" fill="#fafafa"/><path d="M353.58,437.979a.068.068,0,0,1,.042,0C353.605,437.979,353.593,437.946,353.58,437.979Z" transform="translate(-341.637 -407.989)" fill="#fafafa"/><path d="M353.773,437.8c0,.025.085.059.051.11s-.085-.021-.144-.034c.038.042.1.148.212.068l-.021-.025a.618.618,0,0,1,.36-.118A1.835,1.835,0,0,0,353.773,437.8Z" transform="translate(-341.695 -407.886)" fill="#fafafa"/><path d="M354.766,436.43l-.034-.22-.182.059h.093C354.58,436.392,354.7,436.4,354.766,436.43Z" transform="translate(-342.197 -406.977)" fill="#fafafa"/><path d="M31.585,67.43l.178.072-.233-.182Z" transform="translate(-18.182 -38.908)" fill="#fafafa"/><path d="M31.77,66.9l.161.055-.08-.093Z" transform="translate(-18.321 -38.643)" fill="#fafafa"/><path d="M361.49,398.3l-.03-.068A.2.2,0,0,0,361.49,398.3Z" transform="translate(-346.182 -385.069)" fill="#fafafa"/><path d="M361.24,399.371l.08.03C361.278,399.371,361.248,399.354,361.24,399.371Z" transform="translate(-346.056 -385.723)" fill="#fafafa"/><path d="M361.08,418.815c.173-.042.423-.076.245-.114l-.182-.021A.114.114,0,0,1,361.08,418.815Z" transform="translate(-345.963 -396.865)" fill="#fafafa"/><path d="M361.213,408.11h-.063l.157.1A1.363,1.363,0,0,1,361.213,408.11Z" transform="translate(-346.004 -390.768)" fill="#fafafa"/><path d="M359.6,407.4l.144-.08A.38.38,0,0,0,359.6,407.4Z" transform="translate(-345.11 -390.312)" fill="#fafafa"/><path d="M362.31,392.688l-.165-.118C362.119,392.68,362.221,392.655,362.31,392.688Z" transform="translate(-346.575 -381.804)" fill="#fafafa"/><path d="M358.576,427.442a.364.364,0,0,0,.152-.152C358.605,427.349,358.432,427.379,358.576,427.442Z" transform="translate(-344.487 -401.832)" fill="#fafafa"/><path d="M365.753,399.9a.135.135,0,0,0-.093-.076.11.11,0,0,0,.093.076Z" transform="translate(-348.605 -385.986)" fill="#fafafa"/><path d="M359.075,426.79l-.055.025a.258.258,0,0,1,0,.186C359.109,426.955,359.177,426.879,359.075,426.79Z" transform="translate(-344.775 -401.543)" fill="#fafafa"/><path d="M368.13,373.242h.03C368.134,373.221,368.13,373.23,368.13,373.242Z" transform="translate(-350.03 -370.647)" fill="#fafafa"/><path d="M373.89,368.66a.317.317,0,0,1,0,.1A.229.229,0,0,0,373.89,368.66Z" transform="translate(-353.353 -368.011)" fill="#fafafa"/><path d="M358,431.51Z" transform="translate(-344.187 -404.266)" fill="#fafafa"/><path d="M356.04,431.637a.174.174,0,0,0-.08-.047.19.19,0,0,1,.08.047Z" transform="translate(-343.01 -404.312)" fill="#fafafa"/><path d="M356.845,424.81h0C356.807,424.814,356.816,424.81,356.845,424.81Z" transform="translate(-343.506 -400.401)" fill="#fafafa"/><path d="M357.74,431.585a.3.3,0,0,0,.068-.055A.161.161,0,0,0,357.74,431.585Z" transform="translate(-344.037 -404.277)" fill="#fafafa"/><path d="M357.9,431.68l-.03.047C357.9,431.739,357.925,431.739,357.9,431.68Z" transform="translate(-344.112 -404.364)" fill="#fafafa"/><path d="M357.942,431.33a.177.177,0,0,1-.042.085h.034A.271.271,0,0,0,357.942,431.33Z" transform="translate(-344.129 -404.162)" fill="#fafafa"/><path d="M366.406,384.042h.021C366.368,383.957,366.373,384,366.406,384.042Z" transform="translate(-349.022 -376.855)" fill="#fafafa"/><path d="M357.62,414.48Z" transform="translate(-343.967 -394.442)" fill="#fafafa"/><path d="M357.43,413.93c.2.144.157.182.093.233l.529.072Z" transform="translate(-343.858 -394.125)" fill="#fafafa"/><path d="M357.949,379.168l-.195.1c-.22-.237-.1-.334-.355-.262.55.165-.085.546.465.715l-.144.059v-.063c-.313.106.364.241.224.444-.063.068-.157.1-.212.03l.093.216c-.025.047-.118,0-.093-.038l-.03.279h0a2.053,2.053,0,0,1,.233.245c-.1.047-.051-.051-.123-.051l.093.182c-.161.025-.267-.135-.22-.233-.588,0,.11.161-.3.372l-.034-.161c-.339,0-.254.148-.491.254.114,0,.58-.186.673,0-.051.034-.089.089,0,.207-.2-.051-.174.047-.19.157l-.258-.08c.047.135.182.165.279.262-.059.123-.271.093-.449.08-.1.195.364-.055.347.2-.144.144-.068.292.034.537-.123.1-.157-.063-.241-.038l.178.161c0,.025-.072,0-.1,0,.055.11.258.076.292.237.279.114-.5.174-.216.423-.089.021-.157-.063-.262-.076a1.515,1.515,0,0,0,.339.516l-.216.123c.229-.072.423.148.575.334a1.832,1.832,0,0,0,.245-.047l.08.258a.51.51,0,0,1-.233-.1.325.325,0,0,0,.051.055c-.118.055-.258-.025-.389-.123l.182-.034a1.333,1.333,0,0,0-.461-.224.148.148,0,0,1,.051.089.215.215,0,0,0-.1-.042c-.03,0,.021.038.076.089l-.3-.025.114.042-.258.237c.237.284.622.576.656.935-.19-.14-.343-.11-.6-.182.292,0-.047-.284.055-.423-.055.08-.169.025-.207,0l.165.364c-.2-.063-.173.021-.279.076.423.051.216.3.309.453-.14-.03-.275-.093-.2-.233-.351.08.423.339.123.423,0-.038.03-.051-.034-.085.1.118-.055.3-.161.22v-.038c-.114.229-.2.736.135.846a2.975,2.975,0,0,1-.474-.178l1.054.745c-.288-.118-1.037-.161-1.155-.423a.174.174,0,0,0-.051.254c.051-.03.457,0,.47.076a1.858,1.858,0,0,0-.537.161c.08-.038.529.148.491.241a4.4,4.4,0,0,1-.5-.165l.4.355a.9.9,0,0,0-.529-.1c.093,0-.063.2-.034.271l.131-.068c-.14.241.58.423.487.681-.089-.055-.567-.233-.66-.114.22.123,1.062.567,1.185.846h-.148l.106.216a9.513,9.513,0,0,1-1.231-.956c-.135.072-.169,0-.195.135a.165.165,0,0,1-.165-.178l-.174.322c.279.059.207.334.423.381l-.186-.444c.275.059.719.423.609.652-.127.03-.478-.178-.571-.2.085.059.118.279.047.284l-.118-.14c-.14.106.3.313,0,.423-.034.051-.4.072-.237.127a5.384,5.384,0,0,1,1.532.355,2.457,2.457,0,0,1-.55.237c-.271.025-.55-.3-.783-.275a.482.482,0,0,1,.178.131c-.08.042-.229-.089-.229.051.275.093-.089.25.22.123.047.144-.093.114-.118.267a.986.986,0,0,1,.626.423.685.685,0,0,0-.216-.021c-.093.25-.258.351-.322.588-.076,0-.186.1-.292,0,.038.047.123.106.11.182-.279.076,0-.173-.309-.144.157.051.169.25.245.381.258.034.11-.229.038-.36a1.1,1.1,0,0,1,.749.66c.034.22-.245.025-.2.076-.161.355.516.474.186.719-.254.063-.423-.114-.605-.127-.038-.186.207-.212.224-.322l-.14.106c-.059-.072-.085-.195,0-.233-.224.047-.207.618-.466.846.059.068.114.178.212.161v-.1c.2-.034.2.237.313.144.089.157.25.347.106.491l-.262-.034c.076,0,.182-.076.118-.144.089.1-.423.173-.1.339l.2-.072c.093.157.322.377.2.508.267,0,0-.042.3-.072-.385,0,.118-.385-.3-.339.368-.021.195-.152.52-.22-.085,0-.173,0-.1-.106a.258.258,0,0,1-.063-.051h0a.343.343,0,0,1-.144.034c-.173-.114-.114-.317-.195-.423.059-.068.089.055.186.038l-.118-.14c.186.038.36-.123.423.085l.051-.157c.127-.068.2-.186.148-.288.059-.064-.152-.245-.025-.14l-.047-.283h.047c.089-.241-.169-.588.237-.787a.347.347,0,0,1,.034-.322h.165c-.025-.123.245-.284.093-.372.457,0,.233-.5.355-.664l-.2-.064a.786.786,0,0,0-.021-.449l-.186-.038c-.114-.182.229-.326.267-.55.068.034.034.085,0,.114.487-.152-.152-.635.212-.791-.051-.076,0-.114.042-.144a.034.034,0,0,0,0-.025l.123-.055a.372.372,0,0,0-.118.042.423.423,0,0,0-.025-.2l.207.025h0c.093-.047-.076-.08-.233-.085a.422.422,0,0,0-.1-.118c.334.03-.059-.207.3-.19-.152-.093-.034-.377-.372-.508.047,0,.072,0,.068.034.059-.064.118-.131.038-.224l.258.034-.292-.254a.36.36,0,0,1,.444.072c-.228-.322-.059-.224-.3-.508l.161.051c0-.072-.173-.25-.03-.258.351-.08.262-.8.66-1.143-.5-.047.262-.14-.1-.254.118,0,.2-.038.279.055-.055-.245.267-.275,0-.508.123,0,.157.093.229.089-.021-.025-.08-.093,0-.1s.089.059.127.106c.038-.224-.3-.339-.622-.444.182-.068.174-.131,0-.267.118,0,.245-.047.25.1.034-.072.279-.423.021-.5.072,0,.047-.106.021-.131a1.084,1.084,0,0,0,.11-.355l-.055.038c-.3-.152-.034-.161-.034-.3h.03c.313-.254-.072-.165.271-.423l-.2-.034c-.423-.144.322-.207.207-.423l-.131.038c-.118-.14.647-.123.728-.207.042,0,.047.051.068.089.317-.19-.25-.1-.258-.309.148,0,.343.14.4,0,.127-.034-.351-.5-.038-.6-.118,0-.233.021-.292-.089s.5-.262.2-.474a.173.173,0,0,1,.093,0c-.059-.131-.055-.381-.22-.491.7.085-.157-.736.465-.567l.051-.33.063.025c.1-.195-.034-.3-.165-.423a.107.107,0,0,1,.135.03c.207-.267.186-.3-.055-.639l.207.03c-.1-.1.423-.351.275-.707a.22.22,0,0,1,.085.055c-.152-.394.77-.639.068-.956l-.127-.267c-.131.267-.309-.127-.461-.047,0-.123.3-.224.3-.08h-.042c.372.152.228-.313.491-.237.127-.559.487-1.045.639-1.561h-.313L361,374.3c.085-.03.254,0,.207.123.186,0-.085-.254-.148-.275.186-.22.322.19.347.118v-.114h-.042c-.1-.118-.229-.161-.169-.313.085-.085.195,0,.22-.038s.034,0,.021-.055l.089-.224-.262.03c-.089-.131.072-.212-.224-.178.453-.047.377-.812.529-.876a.423.423,0,0,1-.025-.491c-.063.03-.334,0-.262-.157.533.2.309-.212.736-.228-.288.038.051-.423-.368-.372.08-.11.207.047.364,0-.135-.351.313-.618.339-1-.072-.025-.2,0-.284-.1l.423-.1c0-.08-.4-.178-.11-.245-.068,0-.165,0-.178-.047.546-.626.106-1.549.961-2.116-.165.063-.161,0-.148-.085-.047.042-.178-.047-.275-.063l.351-.233c-.254-.131.068-.334-.182-.423l.021.11c-.271-.212-.728,0-1.113-.123.309.237-.614.241-.182.609-.093.034-.114-.076-.212-.072.152.1.165.186.055.3l-.038-.025c-.059.385-.267.5-.491.9l.2.021c-.051.085-.118.089-.178.118.267.182.085-.254.385-.072-.423,0-.178.643-.647.605-.038.14.237,0,.195.157h-.131l.148.076c-.051.085-.216.093-.317.068v-.1c-.173.08-.038.351-.1.377l.11-.114c0,.423-.271.846-.123,1.269h.1c.093.326-.161.2-.165.529h0a.258.258,0,0,1,.063.262c-.085-.106-.245.093-.339-.042.1.355.106.19.389.482h-.165c.118.106.19.127.19.3-.1-.165-.258.034-.394-.152-.423.237.207.571-.317.588.381.262.309-.216.377-.11.152-.034.279.207.212.3s-.584.034-.647.3c0-.025-.021-.034,0-.059-.135.068.093.229-.114.3.237.131-.055.148.262.254v-.258c.047.161.393.385.148.563a.75.75,0,0,1-.165-.182c-.11.038.03.14-.085.182-.317-.106,0-.309-.2-.521-.152.034.165.339-.169.169.423.224-.123.245.169.512l-.19-.063c.021.034.1.118.08.169l-.229-.161c.178.2-.258.224-.178.394.068-.288.25,0,.423-.085.165.423-.563.068-.576.487,0-.059.174-.169.237-.059a.508.508,0,0,1-.275.161c-.03.275.212,0,.3.157-.258.025.063.157.106.292l-.195-.051c-.207.262.389.186.165.423l-.245-.186.034.161-.216-.089c.127.195.072.233-.034.364.148,0,.355.118.326.25-.144.059-.173-.1-.2.1-.11-.076-.254-.165-.051-.2-.059-.025-.11-.072-.174-.1-.161.059-.093.233-.11.3a.119.119,0,0,1,.063-.063l.2.347c-.089.021-.135-.03-.186-.076,0,.059.085.123.08.207-.152-.063-.322-.1-.364-.237l.106.309c-.072,0-.224.08-.275.03-.131.118.216.423.042.6a.148.148,0,0,1,.064.089c-.085.173-.322.279-.161.55l-.317.042c.021.186.423-.068.423.241.038.22-.267,0-.364.055.118.135.368.385.085.5C357.9,379.257,357.953,379.223,357.949,379.168Zm-.423,2.086c-.034-.051-.14-.161,0-.161.2.1.085.1,0,.152Zm-.36,3.25c-.059-.047,0-.085.076-.114.008.03-.008.072-.072.106Zm-.931,9.051h0C356.315,393.479,356.277,393.5,356.235,393.555Zm-.131.161a.093.093,0,0,0,.076.034c-.042-.025-.038-.068,0-.114-.076,0-.118.017-.089.08Zm5.209-19.808-.063.021C361.194,373.832,361.241,373.87,361.313,373.908Z" transform="translate(-342.421 -366.95)" fill="#fafafa"/><path d="M359.8,407.555h.11A.093.093,0,0,0,359.8,407.555Z" transform="translate(-345.225 -390.438)" fill="#fafafa"/><path d="M362.564,392.9Z" transform="translate(-346.8 -381.994)" fill="#fafafa"/><path d="M355.5,422.507a.233.233,0,0,1,.123-.047A.1.1,0,0,0,355.5,422.507Z" transform="translate(-342.744 -399.042)" fill="#fafafa"/><path d="M357.7,432.721v-.131c0,.059-.055.068-.093.089C357.64,432.687,357.712,432.683,357.7,432.721Z" transform="translate(-343.962 -404.889)" fill="#fafafa"/><path d="M354.3,434.516c.021.025,0,.038,0,.063h.093C354.418,434.525,354.359,434.453,354.3,434.516Z" transform="translate(-342.052 -405.986)" fill="#fafafa"/><path d="M356.031,432.74c-.165-.034-.131.055-.123.144C356.141,432.956,356.086,432.846,356.031,432.74Z" transform="translate(-342.975 -404.971)" fill="#fafafa"/><path d="M355.92,433.14a.118.118,0,0,1,0,.076C356,433.25,355.954,433.191,355.92,433.14Z" transform="translate(-342.987 -405.206)" fill="#fafafa"/><path d="M357.759,430.9c-.055.025.2.08.131.085C358.089,431.084,357.7,430.657,357.759,430.9Z" transform="translate(-344.043 -403.87)" fill="#fafafa"/><path d="M29.51,65.518l.212.025-.152-.093Z" transform="translate(-17.017 -37.829)" fill="#fafafa"/><path d="M355.523,431.11l-.093.118a.08.08,0,0,1,.059.055C355.519,431.2,355.582,431.123,355.523,431.11Z" transform="translate(-342.704 -404.035)" fill="#fafafa"/><path d="M355.548,431.52a.11.11,0,0,0,0,.114A.22.22,0,0,0,355.548,431.52Z" transform="translate(-342.763 -404.272)" fill="#fafafa"/><path d="M29.48,64.984l.051-.025.042-.089Z" transform="translate(-17 -37.495)" fill="#fafafa"/><path d="M356.464,427.545l-.021-.161c-.068-.03-.118,0-.106.059A.115.115,0,0,0,356.464,427.545Z" transform="translate(-343.226 -401.879)" fill="#fafafa"/><path d="M354.89,428.362c.051-.03.1,0,.169,0l-.25-.072Z" transform="translate(-342.346 -402.408)" fill="#fafafa"/><path d="M354.918,427.228c-.068-.034-.148-.262-.178-.076C354.8,427.185,354.825,427.342,354.918,427.228Z" transform="translate(-342.306 -401.71)" fill="#fafafa"/><path d="M31.9,55.54l0,.038.419.106Z" transform="translate(-18.396 -32.113)" fill="#fafafa"/><path d="M356.1,417.34c-.144.144.245.11.08.233.089.064.135-.1.212-.038C356.311,417.4,356.383,417.365,356.1,417.34Z" transform="translate(-343.069 -396.092)" fill="#fafafa"/><path d="M356.83,417.8a.51.51,0,0,0,.047.072.232.232,0,0,0-.047-.072Z" transform="translate(-343.512 -396.357)" fill="#fafafa"/><path d="M49.242.775,49.361.69,49.2.724Z" transform="translate(-28.375 -0.473)" fill="#fafafa"/><path d="M374.08,367.035l.271.047-.22-.131C374.135,366.971,374.143,367.035,374.08,367.035Z" transform="translate(-353.462 -367.025)" fill="#fafafa"/><path d="M359.6,401.237l.063.025c.072,0,.085-.025.11-.072Z" transform="translate(-345.11 -386.776)" fill="#fafafa"/><path d="M35.613,30.95l-.013.025.254.017Z" transform="translate(-20.53 -17.928)" fill="#fafafa"/><path d="M361.057,394.75a.478.478,0,0,0,0,.173C361.028,394.8,361.362,394.818,361.057,394.75Z" transform="translate(-345.945 -383.061)" fill="#fafafa"/></g></svg>