<svg xmlns="http://www.w3.org/2000/svg" width="400" height="229.832" viewBox="0 0 400 229.832"><g transform="translate(0 0)"><circle cx="20.802" cy="20.802" r="20.802" transform="translate(65.867 162.406)" fill="#f2f2f2"/><circle cx="20.802" cy="20.802" r="20.802" transform="translate(69.249 159.362)" fill="#a8a8a8"/><rect width="257.38" height="0.702" transform="translate(106.804 157.147)" fill="#3f3d56"/><path d="M287.914,137.9H196.56v-1.883H155.136V137.9H63.406a6.179,6.179,0,0,0-6.179,6.179V269.173a6.179,6.179,0,0,0,6.179,6.179H287.914a6.179,6.179,0,0,0,6.179-6.179V144.081a6.179,6.179,0,0,0-6.179-6.179Z" transform="translate(-47.812 -131.352)" fill="#3f3d56"/><rect width="220.297" height="124.27" transform="translate(17.699 17.47)" fill="#a8a8a8"/><circle cx="2.259" cy="2.259" r="2.259" transform="translate(125.4 9.562)" fill="#a8a8a8"/><path d="M207.7,174.024H50.406V49.754Z" transform="translate(-32.707 -32.284)" opacity="0.1"/><circle cx="21.176" cy="21.176" r="21.176" transform="translate(30.994 90.09)" fill="#f2f2f2"/><rect width="20.578" height="4.3" transform="translate(179.061 84.49)" fill="#3f3d56"/><rect width="70.334" height="1.843" transform="translate(154.183 51.012)" fill="#3f3d56"/><rect width="70.334" height="1.843" transform="translate(154.183 56.847)" fill="#3f3d56"/><rect width="70.334" height="1.843" transform="translate(154.183 62.683)" fill="#3f3d56"/><rect width="70.334" height="1.843" transform="translate(154.183 68.519)" fill="#3f3d56"/><rect width="70.334" height="1.843" transform="translate(154.183 74.355)" fill="#3f3d56"/><rect width="8.6" height="8.6" transform="translate(215.917 19.991)" fill="#f2f2f2"/><path d="M661.9,196.228H651.455V185.785H661.9Zm-9.989-.454h9.535v-9.535h-9.535Z" transform="translate(-433.387 -163.644)" fill="#3f3d56"/><path d="M282.882,516.53h-21.5v-1.549a.307.307,0,0,0-.307-.307H253.7a.307.307,0,0,0-.307.307v1.549h-4.607v-1.549a.307.307,0,0,0-.307-.307h-7.371a.307.307,0,0,0-.307.307v1.549H236.2v-1.549a.307.307,0,0,0-.307-.307h-7.371a.307.307,0,0,0-.307.307v1.549H223.6v-1.549a.307.307,0,0,0-.307-.307h-7.371a.307.307,0,0,0-.307.307v1.549h-4.607v-1.549a.307.307,0,0,0-.307-.307h-7.371a.307.307,0,0,0-.307.307v1.549h-4.607v-1.549a.307.307,0,0,0-.307-.307H190.74a.307.307,0,0,0-.307.307v1.549h-4.607v-1.549a.307.307,0,0,0-.307-.307H127.777a.307.307,0,0,0-.307.307v1.549h-4.607v-1.549a.307.307,0,0,0-.307-.307h-7.371a.307.307,0,0,0-.307.307v1.549H110.27v-1.549a.307.307,0,0,0-.307-.307h-7.371a.307.307,0,0,0-.307.307v1.549H97.678v-1.549a.307.307,0,0,0-.307-.307H90a.307.307,0,0,0-.307.307v1.549H85.085v-1.549a.307.307,0,0,0-.307-.307H77.406a.307.307,0,0,0-.307.307v1.549H72.492v-1.549a.307.307,0,0,0-.307-.307H64.814a.307.307,0,0,0-.307.307v1.549H59.9v-1.549a.307.307,0,0,0-.307-.307H52.221a.307.307,0,0,0-.307.307v1.549H37.786a7.371,7.371,0,0,0-7.371,7.371v3.333a7.371,7.371,0,0,0,7.371,7.371h245.1a7.371,7.371,0,0,0,7.371-7.371V523.9a7.371,7.371,0,0,0-7.371-7.371Z" transform="translate(-30.415 -377.049)" fill="#3f3d56"/><path d="M144.272,378.644a26.686,26.686,0,1,1,26.686-26.686A26.686,26.686,0,0,1,144.272,378.644Zm0-52.67a25.984,25.984,0,1,0,25.984,25.984A25.984,25.984,0,0,0,144.272,325.974Z" transform="translate(-86.977 -254.153)" fill="#3f3d56"/><rect width="89.539" height="0.702" transform="translate(205.824 11.427)" fill="#3f3d56"/><rect width="257.38" height="0.702" transform="translate(142.62 196.825)" fill="#3f3d56"/><rect width="89.539" height="0.702" transform="translate(67.653 229.129)" fill="#3f3d56"/><rect width="9.832" height="9.832" transform="translate(165.384 193.123)" fill="#a8a8a8"/><path d="M524.353,662.667H512.415V650.728h11.938Zm-11.419-.519h10.9v-10.9h-10.9Z" transform="translate(-343.169 -465.33)" fill="#3f3d56"/><rect width="9.832" height="9.832" transform="translate(279.502 7.725)" fill="#a8a8a8"/><path d="M849.353,134.667H837.415V122.728h11.938Zm-11.419-.519h10.9v-10.9h-10.9Z" transform="translate(-554.051 -122.728)" fill="#3f3d56"/><rect width="9.832" height="9.832" transform="translate(378.521 193.123)" fill="#a8a8a8"/><path d="M1131.349,662.667H1119.41V650.728h11.938Zm-11.419-.519h10.9v-10.9h-10.9Z" transform="translate(-737.028 -465.33)" fill="#3f3d56"/><path d="M947.523,287.934h-.835v-22.88a13.242,13.242,0,0,0-13.242-13.243H884.969a13.243,13.243,0,0,0-13.243,13.243V390.577a13.243,13.243,0,0,0,13.243,13.243h48.475a13.243,13.243,0,0,0,13.242-13.243V304.221h.835Z" transform="translate(-576.314 -206.486)" fill="#3f3d56"/><path d="M950.622,273.47V398.81a9.89,9.89,0,0,1-9.89,9.891H892.024a9.889,9.889,0,0,1-9.888-9.89V273.47a9.889,9.889,0,0,1,9.887-9.888h5.911a4.7,4.7,0,0,0,4.351,6.471h27.771a4.7,4.7,0,0,0,4.351-6.471h6.327a9.889,9.889,0,0,1,9.889,9.888Z" transform="translate(-583.069 -214.124)" fill="#a8a8a8"/><rect width="14.51" height="4.3" transform="translate(326.055 132.102)" fill="#3f3d56"/><rect width="49.594" height="1.843" transform="translate(308.513 98.624)" fill="#3f3d56"/><rect width="49.594" height="1.843" transform="translate(308.513 104.46)" fill="#3f3d56"/><rect width="49.594" height="1.843" transform="translate(308.513 110.295)" fill="#3f3d56"/><rect width="49.594" height="1.843" transform="translate(308.513 116.131)" fill="#3f3d56"/><rect width="49.594" height="1.843" transform="translate(308.513 121.966)" fill="#3f3d56"/><rect width="8.6" height="8.6" transform="translate(326.442 74.152)" fill="#f2f2f2"/><path d="M969.474,340.032v10.443h10.443V340.032Zm9.99,9.99h-9.537v-9.537h9.537Z" transform="translate(-639.739 -263.73)" fill="#3f3d56"/><path d="M950.622,510.6v13.385a9.89,9.89,0,0,1-9.89,9.891H892.024a9.889,9.889,0,0,1-9.888-9.89V456.492l41.037,32.42.7.555,7.634,6.029.713.565Z" transform="translate(-583.069 -339.297)" opacity="0.1"/><circle cx="15.403" cy="15.403" r="15.403" transform="translate(313.693 159.709)" fill="#f2f2f2"/><path d="M294.135,664.369a30.549,30.549,0,1,1,30.549-30.549A30.549,30.549,0,0,1,294.135,664.369Zm0-60.395a29.846,29.846,0,1,0,29.846,29.846A29.846,29.846,0,0,0,294.135,603.974Z" transform="translate(-181.712 -434.538)" fill="#3f3d56"/><path d="M944.9,583.9a19.312,19.312,0,1,1,19.312-19.312A19.312,19.312,0,0,1,944.9,583.9Zm0-37.922a18.61,18.61,0,1,0,18.61,18.61A18.61,18.61,0,0,0,944.9,545.974Z" transform="translate(-611.262 -396.903)" fill="#3f3d56"/></g></svg>