<svg xmlns="http://www.w3.org/2000/svg" width="40" height="40" viewBox="0 0 40 40"><g transform="translate(-76.97 104)"><g transform="translate(76.97 -104)"><circle cx="20" cy="20" r="20" transform="translate(0 0)" fill="#41b4e6"/><path d="M138.43,141.1q0-.731-.053-1.449l-8.289-8.289-23.317,9.172,8.921,8.921.117.421.152-.153h0l-.152.152,9.869,9.868A20.006,20.006,0,0,0,138.43,141.1Z" transform="translate(-98.43 -121.098)" fill="#0091c8"/><path d="M116.487,144.012l9.038,6.824,4.562-19.476-23.317,9.172,7.1,2.35,12.949-8.686Z" transform="translate(-98.43 -121.098)" fill="#fff"/><path d="M197.588,176.35l1.943,6.992.678-5.863,10.328-9.815Z" transform="translate(-182.151 -154.565)" fill="#d2d2d7"/><path d="M226.076,295.518l-3.615,3.645.678-5.863Z" transform="translate(-205.081 -270.386)" fill="#b9b9be"/></g></g></svg>