<svg xmlns="http://www.w3.org/2000/svg" width="340" height="238.627" viewBox="0 0 340 238.627"><g transform="translate(0 0)"><path d="M898.979,738.487c-2.207,8.4-9.94,13.656-9.94,13.656s-4.155-8.374-1.948-16.778,9.94-13.656,9.94-13.656S901.185,730.083,898.979,738.487Z" transform="translate(-625.938 -516.545)" fill="#3f3d56"/><path d="M900.641,754.71c-6.181,6.107-6.873,15.429-6.873,15.429s9.33-.579,15.511-6.685,6.873-15.429,6.873-15.429S906.822,748.6,900.641,754.71Z" transform="translate(-630.948 -534.545)" fill="#f15025"/><path d="M184.2,645.159h11.641l28.686-11.225s20.371-8.315,18.708,7.483-4.573,37-4.573,37-9.146-4.157-14.135-2.91-1.663-25.36-1.663-25.36-40.742,19.54-44.484,17.045-4.573-19.955-4.573-19.955Z" transform="translate(-138.47 -455.008)" fill="#2f2e41"/><path d="M184.2,645.159h11.641l28.686-11.225s20.371-8.315,18.708,7.483-4.573,37-4.573,37-9.146-4.157-14.135-2.91-1.663-25.36-1.663-25.36-40.742,19.54-44.484,17.045-4.573-19.955-4.573-19.955Z" transform="translate(-138.47 -455.008)" opacity="0.1"/><path d="M242.143,558.82l14.088,20.241L289.074,606.5s30.349,7.068,26.191,12.056-29.517-4.989-29.517-4.989-37.832-27.439-39.079-29.517S231.7,562.431,231.7,562.431Z" transform="translate(-178.072 -405.123)" fill="#a0616a"/><path d="M242.143,558.82l14.088,20.241L289.074,606.5s30.349,7.068,26.191,12.056-29.517-4.989-29.517-4.989-37.832-27.439-39.079-29.517S231.7,562.431,231.7,562.431Z" transform="translate(-178.072 -405.123)" opacity="0.1"/><path d="M208.58,507.092l9.146,17.877s-2.079,8.73-5.4,9.562-17.461-10.809-17.461-10.809Z" transform="translate(-152.871 -369.74)" fill="#d0cde1"/><path d="M208.58,507.092l9.146,17.877s-2.079,8.73-5.4,9.562-17.461-10.809-17.461-10.809Z" transform="translate(-152.871 -369.74)" opacity="0.1"/><path d="M564.095,643.749l2.7,11.145a.7.7,0,0,1-.013.376l-12.255,38.3a.7.7,0,0,1-1.355-.134l-1.7-14.92a.7.7,0,0,1,.03-.294L562.756,643.7a.7.7,0,0,1,1.338.051Z" transform="translate(-396.806 -462.854)" fill="#2f2e41"/><path d="M502.905,575.493l2.494,9.562L494.59,619.977,492.1,609.168Z" transform="translate(-336.61 -393.657)" fill="#f2f2f2"/><path d="M415.765,770.949c.416,1.247,43.237-.416,43.652-.831a9.026,9.026,0,0,0,.915-1.663c.391-.831.748-1.663.748-1.663l-1.663-13.462-42.405-1.505s-1.06,11.408-1.276,16.63A12.484,12.484,0,0,0,415.765,770.949Z" transform="translate(-303.931 -537.145)" fill="#2f2e41"/><path d="M436.29,689.965l.831,11.641H418.413V689.965Z" transform="translate(-286.209 -471.959)" opacity="0.1"/><path d="M375.276,701.758l.112-.022-.527,5.011H364.467v-4.989Z" transform="translate(-249.308 -480.011)" opacity="0.1"/><path d="M415.765,806.95c.416,1.247,43.237-.416,43.652-.831a9.022,9.022,0,0,0,.915-1.663h-44.6A12.478,12.478,0,0,0,415.765,806.95Z" transform="translate(-303.932 -573.146)" opacity="0.1"/><circle cx="18.708" cy="18.708" r="18.708" transform="translate(43.237 94.116)" fill="#a0616a"/><path d="M192.418,447.207s-6.236,10.809-7.483,16.63S166.227,452.2,166.227,452.2l-2.287-6.028s16.422-7.691,15.174-13.927S192.418,447.207,192.418,447.207Z" transform="translate(-131.72 -317.753)" fill="#a0616a"/><path d="M221.395,584.722l17.045,22.45,40.742,30.349s29.517,6.236,22.866,10.809-25.776-4.157-25.776-4.157-41.158-22.034-49.889-31.18-24.944-24.529-24.944-24.529Z" transform="translate(-157.371 -422.841)" fill="#a0616a"/><path d="M112.127,689.638l4.989,7.9,29.774-9.367a23.41,23.41,0,0,1,19.491,2.352c5.2,3.274,8.523,8.471,1.039,16.162-14.967,15.382-24.944,7.068-24.944,7.068s-50.3,23.7-58.619,12.056-8.73-17.461-8.73-17.461S107.138,688.39,112.127,689.638Z" transform="translate(-70.969 -492.835)" fill="#2f2e41"/><path d="M295.09,773.987s13.3,8.731-2.494,12.888-27.439-1.663-27.439-1.663-13.719,0-13.719-7.068,4.573-7.9,4.573-7.9l14.135,2.079S287.191,767.751,295.09,773.987Z" transform="translate(-191.572 -549.745)" fill="#d0cde1"/><path d="M219.786,365.5a13.95,13.95,0,0,0,3.92,1.4,3.579,3.579,0,0,0,3.616-1.549,4.863,4.863,0,0,0,.411-2.2c.05-2.283-.115-4.751-1.562-6.518-.921-1.124-2.265-1.833-3.218-2.93a13.848,13.848,0,0,1-1.627-2.658c-1.853-3.481-4.6-6.827-8.412-7.83a18.241,18.241,0,0,0-4.91-.375l-9.6.135a16.721,16.721,0,0,0-4.62.5c-3.091.935-5.342,3.534-7.4,6.021a37.651,37.651,0,0,0-4.246,5.86,20.562,20.562,0,0,0-2.437,10.075,9.427,9.427,0,0,0,.345,2.666,14.8,14.8,0,0,0,1.048,2.3c1.8,3.538,2.871,7.957.842,11.369,3.524-1.439,7.01-3.327,9.334-6.341,1.04-1.348,1.855-2.927,3.241-3.916s3.644-1.075,4.533.377a4.062,4.062,0,0,1,.458,1.9A8.722,8.722,0,0,0,200.02,377a2.407,2.407,0,0,0,2.614,1.492c1.81-.51,1.637-3.288,3.031-4.55,1.059-.958,2.692-.775,4.052-1.21a6.014,6.014,0,0,0,3.452-3.4c.515-1.155.508-4.178,1.482-4.8C215.874,363.747,218.653,364.994,219.786,365.5Z" transform="translate(-142.494 -257.381)" fill="#2f2e41"/><path d="M92.7,472.2a4.934,4.934,0,0,1,2.568.007c2.669.716,8.651,2.613,9.934,5.5,1.663,3.742,7.483,9.562,7.483,9.562s7.9,7.9,6.236,13.3-7.9,11.641-7.9,11.641,1.663,25.776-6.652,32.428-11.641,2.079-11.641,8.315-25.776,25.776-30.765,13.719c0,0,2.494-22.45,1.663-30.349C62.812,528.541,64.011,479.968,92.7,472.2Z" transform="translate(-61.968 -345.759)" fill="#d0cde1"/><path d="M159.424,503.413s25.36,18.708,20.787,26.607c0,0-15.382,7.483-18.708,7.068s-16.214-14.966-19.54-16.214S136.974,497.176,159.424,503.413Z" transform="translate(-115.356 -366.476)" fill="#d0cde1"/><circle cx="20.538" cy="20.538" r="20.538" transform="translate(136.834 54.491)" fill="#f2f2f2"/><path d="M847.74,173.29H732.649V149.207H847.74Zm-114.584-.507H847.232V149.714H733.156Z" transform="translate(-520.736 -124.934)" fill="#3f3d56"/><rect width="114.583" height="23.576" transform="translate(204.054 29.089)" fill="#f15025"/><circle cx="1.775" cy="1.775" r="1.775" transform="translate(129.846 3.042)" fill="#f15025"/><circle cx="1.775" cy="1.775" r="1.775" transform="translate(135.93 3.042)" fill="#f15025"/><circle cx="1.775" cy="1.775" r="1.775" transform="translate(142.014 3.042)" fill="#f15025"/><path d="M675.936,211.306H462.487V72.386h213.45ZM462.993,210.8H675.429V72.893H462.994Z" transform="translate(-335.937 -72.386)" fill="#3f3d56"/><rect width="212.942" height="0.507" transform="translate(126.804 7.69)" fill="#3f3d56"/><path d="M475.748,82.861a2.028,2.028,0,1,1,2.028-2.028A2.028,2.028,0,0,1,475.748,82.861Zm0-3.549a1.521,1.521,0,1,0,1.521,1.521,1.521,1.521,0,0,0-1.521-1.521Z" transform="translate(-343.62 -76.777)" fill="#3f3d56"/><path d="M495,82.861a2.028,2.028,0,1,1,2.028-2.028A2.028,2.028,0,0,1,495,82.861Zm0-3.549a1.521,1.521,0,1,0,1.521,1.521A1.521,1.521,0,0,0,495,79.312Z" transform="translate(-356.791 -76.777)" fill="#3f3d56"/><path d="M514.258,82.861a2.028,2.028,0,1,1,2.028-2.028,2.028,2.028,0,0,1-2.028,2.028Zm0-3.549a1.521,1.521,0,1,0,1.521,1.521,1.521,1.521,0,0,0-1.521-1.521Z" transform="translate(-369.962 -76.777)" fill="#3f3d56"/><rect width="0.507" height="130.919" transform="translate(193.406 7.943)" fill="#3f3d56"/><rect width="37.265" height="5.07" transform="translate(217.616 72.312)" fill="#f2f2f2"/><rect width="37.265" height="5.07" transform="translate(276.176 72.312)" fill="#f2f2f2"/><path d="M794.089,298H756.317V292.42h37.772Zm-37.265-.507h36.758v-4.563H756.824Z" transform="translate(-536.926 -222.897)" fill="#3f3d56"/><rect width="37.265" height="5.07" transform="translate(217.616 111.605)" fill="#f2f2f2"/><path d="M794.089,422.355H756.317v-5.577h37.772Zm-37.265-.507h36.758v-4.563H756.824Z" transform="translate(-536.926 -307.962)" fill="#3f3d56"/><rect width="95.824" height="5.07" transform="translate(217.743 91.451)" fill="#f2f2f2"/><path d="M853.051,360.176H756.718V354.6h96.331Zm-95.825-.507h95.317v-4.563H757.225Z" transform="translate(-537.2 -265.429)" fill="#3f3d56"/><path d="M979.421,298h-37.77V292.42h37.77Zm-37.265-.507h36.758v-4.563H942.158Z" transform="translate(-663.701 -222.897)" fill="#3f3d56"/><path d="M525.886,267.552A20.854,20.854,0,1,1,546.74,246.7a20.854,20.854,0,0,1-20.854,20.854Zm0-41.076A20.222,20.222,0,1,0,546.108,246.7,20.222,20.222,0,0,0,525.886,226.476Z" transform="translate(-365.039 -177.356)" fill="#3f3d56"/><rect width="89.418" height="0.632" transform="translate(236.363 235.224)" fill="#3f3d56"/></g></svg>