<svg xmlns="http://www.w3.org/2000/svg" width="42" height="42" viewBox="0 0 42 42"><g transform="translate(0 0)"><path d="M0,42,2.9,31.5A20.888,20.888,0,0,1,20.928,0,21.1,21.1,0,0,1,42,20.855,21.344,21.344,0,0,1,20.928,42a21.08,21.08,0,0,1-10.21-2.9Z" fill="#ededed"/><path d="M51.89,76.17l.658.366a17.364,17.364,0,0,0,9.142,2.706,17.729,17.729,0,0,0,17.552-17.7,17.552,17.552,0,0,0-35.1,0,17.716,17.716,0,0,0,2.706,9.434l.439.658L45.6,77.779Z" transform="translate(-40.69 -40.69)" fill="#55cd6c"/><path d="M134.2,135.131l-1.31-.069a1.566,1.566,0,0,0-1.1.414,5.714,5.714,0,0,0-1.931,2.966c-.483,2.069.276,4.552,2.069,7.034a20.9,20.9,0,0,0,11.31,8.207,5.6,5.6,0,0,0,4.69-.552,4.069,4.069,0,0,0,1.793-2.621l.207-.966a.693.693,0,0,0-.345-.759l-4.345-2a.658.658,0,0,0-.828.207L142.68,149.2a.537.537,0,0,1-.552.138,13.4,13.4,0,0,1-7.241-6.207.52.52,0,0,1,.069-.552l1.655-1.862a.849.849,0,0,0,.138-.69l-2-4.483a.6.6,0,0,0-.552-.414" transform="translate(-118.551 -123.511)" fill="#fefefe"/></g></svg>